# xmcd
#
# Track frame offsets:
# 150
# 15921
# 29880
# 42758
# 59890
# 72975
# 90543
# 107269
# 130942
# 149180
# 171149
# 184733
# 200144
# 214325
#
# Disc length: 3079 seconds
#
#
# Revision: 1
# Processed by: cddbd v1.5.2PL0 Copyright (c) Steve Scherf et al.
# Submitted via: FreeRIP 2.35 
#
DISCID=d80c050e
DTITLE=rguedes@ieee.org - Coutry Hits - CD 2
DYEAR=2006
DGENRE=Country
TTITLE0=Willie Nelson - Always On My Mind
TTITLE1=Alan Jackson - Everything I Love
TTITLE2=Martina Macbride - I Love You
TTITLE3=Sheena Easton  - Kenny Rogers - We've Got Tonight
TTITLE4=Dolly Parton - I Will Always Love You
TTITLE5=Barbra Zinger - From This Moment On
TTITLE6=Clay Walker - Everybody Needs Love
TTITLE7=Lucky Jim -  You're So Lonely to Me
TTITLE8=Lucas Babin - If Tomorrow Never Comes
TTITLE9=Lee Ann Womack  - Sons of the Desert - I Hope You Dance
TTITLE10=Terri Clark - When Boy Meets Girl
TTITLE11=Bonnie Tyler - It's a Heartache
TTITLE12=Kentucky Headhunters - Oh, Lonesome Me
TTITLE13=Brooks and Dunn - You Can't Take the Honky Tonk Out the Girl
EXTD=
EXTT0=
EXTT1=
EXTT2=
EXTT3=
EXTT4=
EXTT5=
EXTT6=
EXTT7=
EXTT8=
EXTT9=
EXTT10=
EXTT11=
EXTT12=
EXTT13=
PLAYORDER=
